<?xml version="1.0" encoding="utf-8"?>
<!-- Generator: Adobe Illustrator 26.1.0, SVG Export Plug-In . SVG Version: 6.00 Build 0)  -->
<svg version="1.1" id="Layer_1" xmlns="http://www.w3.org/2000/svg" xmlns:xlink="http://www.w3.org/1999/xlink" x="0px" y="0px"
	 viewBox="0 0 24 24" style="enable-background:new 0 0 24 24;" xml:space="preserve">
<style type="text/css">
	.st0{fill:#0A66C2;}
</style>
<g id="XMLID_00000172441005227970720180000010371869383113771198_">
	<g>
		<path class="st0" d="M5.3,7.4c1.1,0,2.1-0.9,2.1-2.1S6.5,3.3,5.3,3.3c-1.2,0-2.1,0.9-2.1,2.1S4.2,7.4,5.3,7.4z M7.1,20.5V9H3.6
			v11.5H7.1z M16.2,8.7c-1.7,0-2.9,0.9-3.4,1.9h-0.1V9H9.4v11.5h3.6v-5.7c0-1.5,0.3-2.9,2.1-2.9c1.8,0,1.8,1.7,1.8,3v5.6h3.6v-6.3
			C20.5,11.1,19.8,8.7,16.2,8.7z M24,1.7v20.5c0,1-0.8,1.7-1.8,1.7H1.8c-1,0-1.8-0.8-1.8-1.7V1.7C0,0.8,0.8,0,1.8,0h20.4
			C23.2,0,24,0.8,24,1.7z"/>
	</g>
	<g>
	</g>
</g>
</svg>
